<?xml version="1.0" standalone="no"?>
<!DOCTYPE svg PUBLIC "-//W3C//DTD SVG 20010904//EN"
 "http://www.w3.org/TR/2001/REC-SVG-20010904/DTD/svg10.dtd">
<svg version="1.0" xmlns="http://www.w3.org/2000/svg"
 width="128.000000pt" height="128.000000pt" viewBox="0 0 128.000000 128.000000"
 preserveAspectRatio="xMidYMid meet">
<metadata>
Created by potrace 1.11, written by Peter Selinger 2001-2013
</metadata>
<g transform="translate(0.000000,128.000000) scale(0.100000,-0.100000)"
fill="#000000" stroke="none">
<path d="M646 1239 c-9 -13 -19 -41 -23 -61 -3 -21 -9 -38 -13 -38 -20 0 -77
49 -89 78 -8 17 -20 32 -26 32 -18 0 -35 -46 -35 -92 0 -37 -2 -40 -22 -34
-13 3 -59 11 -103 17 -108 14 -148 25 -170 49 -24 27 -30 25 -45 -10 -11 -25
-10 -37 4 -73 9 -24 30 -56 46 -72 17 -16 30 -32 30 -37 0 -11 -128 -74 -168
-83 l-32 -7 0 -145 0 -144 53 29 c60 35 165 72 201 72 19 0 26 -7 31 -30 9
-41 56 -77 113 -86 94 -14 300 32 495 110 98 40 117 43 117 20 0 -9 15 -31 33
-48 25 -25 51 -37 118 -54 47 -12 93 -24 102 -28 16 -6 17 11 17 190 l0 196
-55 0 c-31 0 -81 -9 -112 -20 -32 -11 -62 -20 -69 -20 -6 0 -19 20 -28 45 -24
62 -80 106 -197 155 -74 31 -106 51 -127 78 l-29 35 -17 -24z"/>
</g>
</svg>
